<svg width="1360" height="502" viewBox="0 0 1360 502" fill="none" xmlns="http://www.w3.org/2000/svg">
<path d="M1.14062 499.898H1359.5V500.927H1.14062V499.898Z" fill="black" stroke="black"/>
<path d="M1.14062 376.161H1359.5V377.19H1.14062V376.161Z" fill="black" stroke="black"/>
<path d="M1.14062 250.396H1359.5V251.424H1.14062V250.396Z" fill="black" stroke="black"/>
<path d="M1.14062 126.658H1359.5V127.687H1.14062V126.658Z" fill="black" stroke="black"/>
<path d="M1.14062 0.892578H1359.5V1.92106H1.14062V0.892578Z" fill="black" stroke="black"/>
<path d="M1.14062 437.016H1359.5V438.044H1.14062V437.016Z" fill="black" stroke="black"/>
<path d="M1.14062 313.278H1359.5V314.307H1.14062V313.278Z" fill="black" stroke="black"/>
<path d="M1.14062 187.513H1359.5V188.541H1.14062V187.513Z" fill="black" stroke="black"/>
<path d="M1.14062 63.7754H1359.5V64.8039H1.14062V63.7754Z" fill="black" stroke="black"/>
<path d="M1360 496.884H0.640625V501.427H1360V496.884Z" fill="black"/>
<path d="M256.398 179.178L256.18 177.694L256.398 179.178ZM425.967 135.515L426.251 136.988L425.967 135.515ZM595.536 113.684L595.621 115.181L595.536 113.684ZM934.673 119.298L935.596 118.115L934.673 119.298ZM1104.24 380.652L1104.59 379.194L1104.24 380.652ZM86.8291 185.416C86.8015 186.916 86.8015 186.916 86.8015 186.916C86.8016 186.916 86.8016 186.916 86.8016 186.916C86.8016 186.916 86.8017 186.916 86.8018 186.916C86.8019 186.916 86.8021 186.916 86.8024 186.916C86.8029 186.916 86.8037 186.916 86.8048 186.916C86.8069 186.916 86.81 186.916 86.8142 186.916C86.8225 186.916 86.8349 186.916 86.8514 186.917C86.8843 186.917 86.9333 186.918 86.9983 186.919C87.1282 186.921 87.3215 186.925 87.576 186.929C88.085 186.937 88.8384 186.949 89.8173 186.963L89.8595 183.963C88.883 183.949 88.1318 183.937 87.625 183.929C87.3716 183.925 87.1792 183.922 87.0504 183.92C86.986 183.918 86.9374 183.918 86.905 183.917C86.8888 183.917 86.8767 183.916 86.8686 183.916C86.8646 183.916 86.8616 183.916 86.8596 183.916C86.8586 183.916 86.8578 183.916 86.8574 183.916C86.8571 183.916 86.8569 183.916 86.8568 183.916C86.8568 183.916 86.8567 183.916 86.8567 183.916C86.8567 183.916 86.8567 183.916 86.8567 183.916C86.8567 183.916 86.8567 183.916 86.8291 185.416ZM95.8491 187.035C97.6502 187.054 99.692 187.072 101.949 187.089L101.97 184.089C99.717 184.072 97.6782 184.054 95.88 184.036L95.8491 187.035ZM108.001 187.124C109.929 187.133 111.965 187.139 114.096 187.143L114.102 184.143C111.973 184.139 109.94 184.133 108.014 184.124L108.001 187.124ZM120.182 187.146C122.141 187.144 124.163 187.14 126.241 187.133L126.231 184.133C124.155 184.14 122.136 184.144 120.179 184.146L120.182 187.146ZM132.309 187.104C134.293 187.091 136.319 187.076 138.381 187.058L138.354 184.058C136.295 184.076 134.272 184.091 132.29 184.104L132.309 187.104ZM144.455 186.995C146.453 186.971 148.48 186.945 150.53 186.914L150.485 183.915C148.438 183.945 146.415 183.972 144.419 183.995L144.455 186.995ZM156.594 186.816C158.599 186.78 160.622 186.74 162.659 186.697L162.596 183.698C160.562 183.741 158.542 183.78 156.54 183.816L156.594 186.816ZM168.727 186.559C170.742 186.509 172.766 186.456 174.798 186.398L174.713 183.4C172.685 183.457 170.664 183.51 168.654 183.56L168.727 186.559ZM180.87 186.215C182.891 186.15 184.916 186.08 186.941 186.006L186.832 183.008C184.811 183.082 182.79 183.151 180.773 183.216L180.87 186.215ZM193.01 185.771C195.036 185.688 197.058 185.6 199.075 185.507L198.937 182.51C196.925 182.603 194.908 182.691 192.887 182.774L193.01 185.771ZM205.145 185.211C207.179 185.106 209.204 184.996 211.215 184.88L211.043 181.885C209.038 182 207.019 182.11 204.99 182.215L205.145 185.211ZM217.285 184.509C219.326 184.377 221.35 184.239 223.351 184.095L223.135 181.103C221.141 181.247 219.126 181.384 217.091 181.515L217.285 184.509ZM229.415 183.631C231.465 183.464 233.486 183.291 235.476 183.109L235.203 180.122C233.224 180.302 231.213 180.475 229.173 180.64L229.415 183.631ZM241.533 182.52C243.595 182.307 245.615 182.084 247.587 181.852L247.235 178.872C245.278 179.103 243.273 179.325 241.224 179.536L241.533 182.52ZM253.635 181.084C254.645 180.947 255.639 180.806 256.616 180.662L256.18 177.694C255.213 177.836 254.23 177.976 253.23 178.112L253.635 181.084ZM256.616 180.662C257.583 180.52 258.549 180.373 259.516 180.222L259.051 177.258C258.094 177.408 257.137 177.553 256.18 177.694L256.616 180.662ZM265.304 179.262C267.228 178.925 269.151 178.572 271.074 178.203L270.509 175.257C268.601 175.623 266.694 175.973 264.788 176.306L265.304 179.262ZM276.824 177.055C278.735 176.659 280.646 176.248 282.556 175.824L281.906 172.896C280.009 173.317 278.112 173.724 276.215 174.118L276.824 177.055ZM288.269 174.519C290.167 174.073 292.066 173.615 293.964 173.146L293.244 170.233C291.357 170.699 289.469 171.155 287.582 171.598L288.269 174.519ZM299.642 171.712C301.529 171.226 303.417 170.729 305.304 170.225L304.529 167.327C302.65 167.829 300.771 168.323 298.893 168.807L299.642 171.712ZM310.952 168.69C312.83 168.172 314.709 167.647 316.587 167.116L315.77 164.229C313.898 164.759 312.026 165.282 310.154 165.798L310.952 168.69ZM322.211 165.506C324.082 164.965 325.954 164.419 327.825 163.869L326.979 160.991C325.111 161.54 323.244 162.085 321.378 162.624L322.211 165.506ZM333.431 162.21C335.298 161.654 337.164 161.096 339.031 160.535L338.168 157.662C336.303 158.222 334.439 158.78 332.575 159.335L333.431 162.21ZM344.626 158.85C346.49 158.287 348.354 157.724 350.218 157.161L349.35 154.289C347.486 154.852 345.622 155.415 343.759 155.978L344.626 158.85ZM355.809 155.473C357.673 154.911 359.537 154.351 361.4 153.793L360.54 150.919C358.674 151.478 356.808 152.038 354.943 152.601L355.809 155.473ZM366.994 152.126C368.86 151.573 370.726 151.024 372.592 150.479L371.751 147.599C369.881 148.145 368.011 148.696 366.142 149.25L366.994 152.126ZM378.195 148.857C380.066 148.32 381.936 147.79 383.806 147.266L382.997 144.377C381.12 144.903 379.244 145.435 377.369 145.973L378.195 148.857ZM389.426 145.713C391.303 145.202 393.179 144.698 395.056 144.204L394.291 141.303C392.406 141.8 390.522 142.305 388.637 142.818L389.426 145.713ZM400.697 142.745C402.583 142.267 404.467 141.8 406.352 141.343L405.646 138.428C403.75 138.886 401.855 139.357 399.96 139.837L400.697 142.745ZM412.02 140.005C413.914 139.57 415.808 139.148 417.702 138.739L417.069 135.806C415.161 136.218 413.255 136.644 411.348 137.082L412.02 140.005ZM423.399 137.55C424.35 137.359 425.301 137.172 426.251 136.988L425.682 134.042C424.724 134.228 423.766 134.416 422.808 134.609L423.399 137.55ZM426.251 136.988C427.251 136.795 428.25 136.603 429.249 136.412L428.686 133.465C427.685 133.657 426.684 133.849 425.682 134.042L426.251 136.988ZM435.248 135.278C437.248 134.904 439.249 134.534 441.25 134.168L440.711 131.217C438.706 131.584 436.701 131.954 434.696 132.329L435.248 135.278ZM447.257 133.082C449.261 132.724 451.265 132.371 453.269 132.021L452.753 129.066C450.745 129.416 448.737 129.77 446.73 130.129L447.257 133.082ZM459.285 130.985C461.291 130.644 463.298 130.307 465.305 129.975L464.814 127.015C462.803 127.348 460.793 127.686 458.782 128.028L459.285 130.985ZM471.329 128.99C473.338 128.666 475.348 128.347 477.357 128.032L476.893 125.068C474.879 125.384 472.865 125.704 470.851 126.028L471.329 128.99ZM483.389 127.1C485.401 126.794 487.414 126.493 489.426 126.196L488.988 123.228C486.971 123.525 484.955 123.828 482.938 124.134L483.389 127.1ZM495.466 125.319C497.481 125.031 499.496 124.748 501.51 124.47L501.1 121.498C499.081 121.777 497.061 122.06 495.042 122.349L495.466 125.319ZM507.559 123.649C509.576 123.38 511.593 123.116 513.61 122.857L513.228 119.881C511.206 120.141 509.184 120.406 507.162 120.675L507.559 123.649ZM519.666 122.094C521.685 121.845 523.705 121.6 525.725 121.361L525.371 118.382C523.347 118.622 521.322 118.867 519.298 119.117L519.666 122.094ZM531.787 120.657C533.809 120.428 535.831 120.203 537.853 119.984L537.529 117.002C535.502 117.221 533.476 117.446 531.449 117.676L531.787 120.657ZM543.922 119.342C545.946 119.133 547.97 118.929 549.994 118.731L549.701 115.745C547.672 115.944 545.643 116.148 543.614 116.358L543.922 119.342ZM556.069 118.151C558.095 117.963 560.121 117.781 562.147 117.604L561.886 114.615C559.855 114.793 557.823 114.976 555.792 115.164L556.069 118.151ZM568.228 117.088C570.256 116.922 572.283 116.761 574.311 116.606L574.082 113.615C572.049 113.77 570.016 113.932 567.983 114.098L568.228 117.088ZM580.397 116.157C582.426 116.012 584.456 115.874 586.485 115.741L586.289 112.747C584.254 112.881 582.219 113.02 580.184 113.164L580.397 116.157ZM592.575 115.359C593.591 115.299 594.606 115.239 595.621 115.181L595.45 112.186C594.432 112.244 593.414 112.304 592.396 112.365L592.575 115.359ZM595.621 115.181C596.627 115.124 597.633 115.069 598.639 115.017L598.483 112.021C597.472 112.073 596.461 112.129 595.45 112.186L595.621 115.181ZM604.676 114.732C606.69 114.646 608.704 114.57 610.717 114.503L610.617 111.505C608.595 111.572 606.572 111.649 604.549 111.735L604.676 114.732ZM616.761 114.327C618.776 114.277 620.791 114.235 622.806 114.201L622.755 111.201C620.732 111.236 618.709 111.278 616.686 111.328L616.761 114.327ZM628.853 114.121C630.869 114.102 632.885 114.09 634.902 114.085L634.894 111.085C632.871 111.09 630.848 111.102 628.825 111.122L628.853 114.121ZM640.951 114.089C642.967 114.097 644.984 114.111 647.001 114.13L647.03 111.13C645.007 111.111 642.985 111.097 640.962 111.089L640.951 114.089ZM653.051 114.205C655.068 114.235 657.085 114.27 659.102 114.31L659.161 111.311C657.139 111.271 655.118 111.236 653.096 111.205L653.051 114.205ZM665.153 114.443C667.17 114.491 669.187 114.543 671.204 114.599L671.287 111.6C669.266 111.544 667.245 111.492 665.225 111.443L665.153 114.443ZM677.255 114.776C679.272 114.838 681.29 114.903 683.307 114.971L683.407 111.972C681.388 111.905 679.368 111.84 677.348 111.777L677.255 114.776ZM689.359 115.18C691.377 115.251 693.394 115.325 695.412 115.4L695.523 112.402C693.504 112.327 691.485 112.253 689.466 112.182L689.359 115.18ZM701.465 115.628C703.482 115.704 705.5 115.782 707.518 115.86L707.634 112.862C705.616 112.784 703.597 112.707 701.579 112.63L701.465 115.628ZM713.573 116.094C715.591 116.172 717.609 116.249 719.628 116.326L719.742 113.328C717.724 113.251 715.706 113.174 713.688 113.096L713.573 116.094ZM725.684 116.553C727.703 116.627 729.722 116.7 731.741 116.771L731.847 113.773C729.83 113.702 727.812 113.629 725.794 113.555L725.684 116.553ZM737.8 116.978C739.82 117.045 741.84 117.109 743.86 117.17L743.95 114.171C741.933 114.11 739.916 114.046 737.899 113.98L737.8 116.978ZM749.921 117.344C751.942 117.399 753.962 117.45 755.983 117.497L756.053 114.497C754.036 114.451 752.019 114.4 750.002 114.345L749.921 117.344ZM762.047 117.625C763.058 117.644 764.069 117.662 765.08 117.679L765.129 114.679C764.121 114.662 763.113 114.644 762.104 114.625L762.047 117.625ZM765.08 117.679C766.069 117.695 767.059 117.698 768.047 117.69L768.021 114.69C767.056 114.698 766.093 114.695 765.129 114.679L765.08 117.679ZM773.972 117.495C775.941 117.385 777.909 117.232 779.875 117.041L779.585 114.055C777.657 114.242 775.73 114.392 773.805 114.5L773.972 117.495ZM785.748 116.362C787.696 116.103 789.643 115.811 791.588 115.494L791.105 112.533C789.186 112.846 787.269 113.133 785.353 113.388L785.748 116.362ZM797.394 114.47C799.32 114.107 801.245 113.723 803.168 113.323L802.557 110.386C800.65 110.783 798.744 111.163 796.839 111.522L797.394 114.47ZM808.916 112.085C810.825 111.66 812.734 111.225 814.642 110.784L813.966 107.861C812.064 108.301 810.164 108.734 808.265 109.156L808.916 112.085ZM820.353 109.449C822.256 109.001 824.155 108.553 826.055 108.108L825.372 105.187C823.469 105.633 821.566 106.082 819.666 106.529L820.353 109.449ZM831.756 106.79C833.658 106.357 835.559 105.933 837.459 105.523L836.826 102.59C834.913 103.004 833.001 103.43 831.09 103.865L831.756 106.79ZM843.172 104.334C845.082 103.954 846.991 103.592 848.898 103.255L848.375 100.301C846.444 100.643 844.514 101.008 842.586 101.392L843.172 104.334ZM854.64 102.315C856.561 102.028 858.48 101.77 860.398 101.546L860.051 98.5665C858.098 98.7941 856.146 99.0563 854.196 99.3478L854.64 102.315ZM866.172 100.982C868.102 100.832 870.029 100.721 871.956 100.655L871.854 97.6572C869.881 97.7243 867.909 97.8374 865.939 97.9911L866.172 100.982ZM877.739 100.599C879.664 100.629 881.587 100.709 883.509 100.845L883.72 97.8522C881.741 97.7128 879.763 97.6305 877.786 97.5998L877.739 100.599ZM889.248 101.419C891.144 101.666 893.039 101.973 894.934 102.343L895.51 99.3987C893.551 99.0159 891.593 98.6995 889.636 98.444L889.248 101.419ZM900.546 103.632C902.383 104.118 904.221 104.669 906.058 105.29L907.018 102.448C905.116 101.805 903.215 101.235 901.313 100.731L900.546 103.632ZM911.447 107.314C913.194 108.037 914.942 108.828 916.691 109.69L918.017 106.999C916.21 106.109 914.403 105.291 912.594 104.542L911.447 107.314ZM921.775 112.399C923.411 113.338 925.048 114.342 926.686 115.415L928.33 112.906C926.643 111.8 924.956 110.765 923.267 109.797L921.775 112.399ZM931.42 118.712C932.197 119.285 932.974 119.874 933.751 120.48L935.596 118.115C934.798 117.492 934 116.887 933.201 116.298L931.42 118.712ZM933.751 120.48C934.497 121.063 935.245 121.674 935.994 122.315L937.944 120.035C937.162 119.366 936.38 118.726 935.596 118.115L933.751 120.48ZM940.377 126.373C941.755 127.744 943.135 129.206 944.518 130.753L946.755 128.754C945.337 127.167 943.916 125.663 942.493 124.247L940.377 126.373ZM948.395 135.305C949.625 136.815 950.857 138.389 952.09 140.023L954.485 138.216C953.231 136.555 951.977 134.952 950.721 133.41L948.395 135.305ZM955.662 144.915C956.802 146.528 957.944 148.188 959.086 149.893L961.579 148.223C960.423 146.499 959.267 144.817 958.111 143.182L955.662 144.915ZM962.379 154.927C963.457 156.612 964.534 158.333 965.612 160.089L968.169 158.52C967.082 156.749 965.995 155.012 964.907 153.311L962.379 154.927ZM968.719 165.243C969.737 166.962 970.755 168.709 971.774 170.483L974.375 168.989C973.35 167.204 972.325 165.445 971.3 163.714L968.719 165.243ZM974.762 175.759C975.736 177.502 976.71 179.268 977.684 181.054L980.318 179.618C979.339 177.823 978.36 176.048 977.381 174.296L974.762 175.759ZM980.575 186.411C981.516 188.174 982.458 189.954 983.399 191.75L986.056 190.357C985.111 188.555 984.166 186.768 983.221 184.998L980.575 186.411ZM986.211 197.159C987.128 198.938 988.046 200.73 988.963 202.534L991.637 201.175C990.717 199.366 989.797 197.568 988.877 195.784L986.211 197.159ZM991.712 207.973C992.613 209.767 993.514 211.57 994.415 213.383L997.101 212.047C996.198 210.231 995.295 208.424 994.393 206.627L991.712 207.973ZM997.116 218.839C998.006 220.644 998.896 222.457 999.786 224.275L1002.48 222.956C1001.59 221.136 1000.7 219.321 999.806 217.512L997.116 218.839ZM1002.45 229.743C1003.34 231.557 1004.22 233.376 1005.11 235.198L1007.8 233.889C1006.92 232.066 1006.04 230.245 1005.15 228.429L1002.45 229.743ZM1007.76 240.669C1008.64 242.491 1009.52 244.313 1010.4 246.136L1013.1 244.831C1012.22 243.008 1011.34 241.184 1010.46 239.363L1007.76 240.669ZM1013.04 251.606C1013.93 253.432 1014.81 255.257 1015.69 257.079L1018.39 255.77C1017.51 253.949 1016.63 252.125 1015.75 250.3L1013.04 251.606ZM1018.35 262.541C1019.24 264.369 1020.12 266.193 1021.01 268.013L1023.71 266.695C1022.82 264.878 1021.93 263.055 1021.04 261.228L1018.35 262.541ZM1023.69 273.461C1024.59 275.29 1025.49 277.112 1026.39 278.926L1029.07 277.593C1028.17 275.782 1027.28 273.963 1026.38 272.136L1023.69 273.461ZM1029.09 284.355C1030.01 286.181 1030.92 287.998 1031.84 289.803L1034.51 288.446C1033.6 286.646 1032.69 284.833 1031.77 283.011L1029.09 284.355ZM1034.59 295.208C1035.53 297.028 1036.47 298.835 1037.4 300.627L1040.06 299.239C1039.13 297.453 1038.2 295.651 1037.26 293.837L1034.59 295.208ZM1040.23 306.002C1041.19 307.811 1042.15 309.602 1043.12 311.375L1045.75 309.944C1044.8 308.18 1043.84 306.396 1042.88 304.594L1040.23 306.002ZM1046.05 316.715C1047.04 318.504 1048.03 320.272 1049.03 322.015L1051.63 320.529C1050.65 318.796 1049.66 317.039 1048.67 315.258L1046.05 316.715ZM1052.09 327.31C1053.13 329.069 1054.16 330.8 1055.2 332.501L1057.76 330.942C1056.73 329.254 1055.71 327.536 1054.68 325.79L1052.09 327.31ZM1058.44 337.732C1059.54 339.474 1060.64 341.179 1061.75 342.846L1064.25 341.19C1063.16 339.542 1062.07 337.854 1060.97 336.128L1058.44 337.732ZM1065.17 347.891C1066.37 349.606 1067.57 351.274 1068.77 352.889L1071.18 351.101C1070 349.511 1068.82 347.868 1067.63 346.174L1065.17 347.891ZM1072.49 357.731C1073.79 359.359 1075.09 360.922 1076.4 362.417L1078.66 360.445C1077.38 358.986 1076.11 357.456 1074.84 355.859L1072.49 357.731ZM1080.6 366.982C1082.08 368.509 1083.57 369.94 1085.07 371.271L1087.06 369.031C1085.63 367.752 1084.19 366.369 1082.74 364.889L1080.6 366.982ZM1089.88 375.192C1091.62 376.473 1093.37 377.611 1095.13 378.591L1096.59 375.972C1094.96 375.059 1093.31 373.992 1091.66 372.776L1089.88 375.192ZM1100.87 381.213C1101.87 381.567 1102.88 381.867 1103.89 382.11L1104.59 379.194C1103.69 378.976 1102.78 378.705 1101.87 378.384L1100.87 381.213ZM1103.89 382.11C1104.93 382.36 1105.98 382.544 1107.05 382.664L1107.38 379.683C1106.44 379.576 1105.51 379.414 1104.59 379.194L1103.89 382.11ZM1113.41 382.671C1115.44 382.463 1117.51 382.064 1119.61 381.492L1118.82 378.598C1116.86 379.132 1114.96 379.497 1113.11 379.687L1113.41 382.671ZM1125.51 379.467C1127.37 378.708 1129.24 377.83 1131.14 376.843L1129.75 374.182C1127.93 375.131 1126.14 375.969 1124.38 376.69L1125.51 379.467ZM1136.53 373.779C1138.24 372.724 1139.97 371.587 1141.72 370.376L1140 367.913C1138.3 369.095 1136.62 370.2 1134.96 371.223L1136.53 373.779ZM1146.63 366.789C1148.22 365.575 1149.82 364.304 1151.42 362.98L1149.51 360.666C1147.94 361.967 1146.37 363.215 1144.81 364.405L1146.63 366.789ZM1156.11 358.981C1157.61 357.662 1159.12 356.301 1160.63 354.9L1158.58 352.702C1157.09 354.085 1155.61 355.428 1154.13 356.729L1156.11 358.981ZM1165.05 350.691C1166.5 349.28 1167.95 347.836 1169.4 346.362L1167.27 344.256C1165.83 345.716 1164.39 347.145 1162.96 348.541L1165.05 350.691ZM1173.62 342.002C1175.01 340.536 1176.41 339.044 1177.8 337.53L1175.59 335.5C1174.21 337.002 1172.83 338.482 1171.45 339.935L1173.62 342.002ZM1181.88 333.02C1183.23 331.513 1184.57 329.987 1185.91 328.444L1183.64 326.477C1182.31 328.01 1180.98 329.526 1179.64 331.023L1181.88 333.02ZM1189.88 323.815C1191.19 322.273 1192.49 320.717 1193.79 319.15L1191.48 317.237C1190.18 318.796 1188.89 320.343 1187.59 321.876L1189.88 323.815ZM1197.65 314.431C1198.93 312.859 1200.19 311.277 1201.46 309.688L1199.11 307.821C1197.85 309.403 1196.59 310.978 1195.32 312.542L1197.65 314.431ZM1205.22 304.902C1206.47 303.301 1207.71 301.695 1208.95 300.086L1206.57 298.261C1205.34 299.864 1204.1 301.463 1202.86 303.057L1205.22 304.902ZM1212.63 295.24C1213.85 293.616 1215.07 291.991 1216.28 290.367L1213.87 288.579C1212.67 290.198 1211.45 291.817 1210.23 293.434L1212.63 295.24ZM1219.89 285.464C1221.09 283.822 1222.28 282.182 1223.45 280.548L1221.02 278.794C1219.85 280.423 1218.66 282.057 1217.46 283.693L1219.89 285.464ZM1227.01 275.587C1228.18 273.932 1229.35 272.284 1230.5 270.645L1228.04 268.922C1226.89 270.555 1225.73 272.198 1224.56 273.849L1227.01 275.587ZM1234 265.626C1235.16 263.945 1236.31 262.277 1237.44 260.626L1234.96 258.931C1233.84 260.578 1232.69 262.241 1231.53 263.918L1234 265.626ZM1240.86 255.6C1242.02 253.888 1243.15 252.198 1244.27 250.531L1241.77 248.864C1240.66 250.526 1239.53 252.212 1238.37 253.919L1240.86 255.6ZM1247.61 245.499C1248.76 243.766 1249.88 242.064 1250.96 240.398L1248.45 238.757C1247.37 240.419 1246.25 242.116 1245.11 243.845L1247.61 245.499ZM1254.29 235.275C1255.42 233.524 1256.52 231.822 1257.57 230.173L1255.04 228.557C1253.99 230.202 1252.9 231.901 1251.77 233.646L1254.29 235.275ZM1260.8 225.083C1261.94 223.28 1263.02 221.559 1264.04 219.928L1261.5 218.339C1260.48 219.966 1259.4 221.683 1258.27 223.481L1260.8 225.083ZM1267.25 214.759C1268.44 212.831 1269.5 211.087 1270.44 209.548L1267.88 207.99C1266.94 209.524 1265.88 211.263 1264.7 213.185L1267.25 214.759ZM1273.59 204.321C1274.09 203.493 1274.46 202.855 1274.72 202.424C1274.85 202.209 1274.94 202.045 1275.01 201.935C1275.04 201.88 1275.06 201.838 1275.08 201.81C1275.09 201.796 1275.1 201.785 1275.1 201.778C1275.1 201.775 1275.1 201.772 1275.1 201.77C1275.1 201.769 1275.11 201.768 1275.11 201.768C1275.11 201.768 1275.11 201.768 1275.11 201.767C1275.11 201.767 1275.11 201.767 1275.11 201.767C1275.11 201.767 1275.11 201.767 1275.11 201.767C1275.11 201.767 1275.11 201.767 1273.81 201.01C1272.52 200.252 1272.52 200.252 1272.52 200.252C1272.52 200.252 1272.52 200.252 1272.52 200.252C1272.52 200.252 1272.52 200.252 1272.52 200.253C1272.52 200.253 1272.52 200.253 1272.52 200.253C1272.52 200.253 1272.52 200.254 1272.52 200.255C1272.51 200.256 1272.51 200.259 1272.51 200.262C1272.51 200.269 1272.5 200.279 1272.49 200.293C1272.48 200.32 1272.45 200.36 1272.42 200.414C1272.36 200.523 1272.26 200.685 1272.14 200.898C1271.88 201.325 1271.51 201.959 1271.02 202.783L1273.59 204.321Z" fill="black"/>
<path d="M86.8291 162.337C86.8291 162.337 199.875 151.421 256.398 142.377C312.921 133.332 369.444 117.946 425.967 108.07C482.49 98.1938 539.013 86.6543 595.536 83.1196C652.059 79.585 708.582 86.0305 765.105 86.8622C821.628 87.6938 878.15 43.615 934.673 88.1097C991.196 132.604 1047.72 341.667 1104.24 353.83C1160.77 365.994 1273.81 161.089 1273.81 161.089" stroke="black" stroke-width="3"/>
</svg>
