<svg width="1379" height="209" viewBox="0 0 1379 209" fill="none" xmlns="http://www.w3.org/2000/svg">
<path d="M6.89307 150.943L104.645 115.723L202.077 125.258L299.51 136.425L396.943 83.3784H494.376L591.808 62.1596H689.241L786.674 56.0173L884.107 21.9556L981.539 7.4375H1078.97L1176.4 12.463L1273.84 202.874L1371.55 12.463" stroke="black"/>
<path d="M7.21175 157.74C10.9911 157.74 14.0549 154.594 14.0549 150.712C14.0549 146.831 10.9911 143.684 7.21175 143.684C3.43241 143.684 0.368652 146.831 0.368652 150.712C0.368652 154.594 3.43241 157.74 7.21175 157.74Z" fill="black" stroke="black"/>
<path d="M104.644 122.751C108.424 122.751 111.487 119.604 111.487 115.723C111.487 111.841 108.424 108.695 104.644 108.695C100.865 108.695 97.8013 111.841 97.8013 115.723C97.8013 119.604 100.865 122.751 104.644 122.751Z" fill="black" stroke="black"/>
<path d="M202.077 132.055C205.857 132.055 208.921 128.908 208.921 125.027C208.921 121.145 205.857 117.999 202.077 117.999C198.298 117.999 195.234 121.145 195.234 125.027C195.234 128.908 198.298 132.055 202.077 132.055Z" fill="black" stroke="black"/>
<path d="M299.51 143.222C303.289 143.222 306.353 140.076 306.353 136.194C306.353 132.313 303.289 129.166 299.51 129.166C295.731 129.166 292.667 132.313 292.667 136.194C292.667 140.076 295.731 143.222 299.51 143.222Z" fill="black" stroke="black"/>
<path d="M397.579 90.734C401.359 90.734 404.423 87.5874 404.423 83.7059C404.423 79.8243 401.359 76.6777 397.579 76.6777C393.8 76.6777 390.736 79.8243 390.736 83.7059C390.736 87.5874 393.8 90.734 397.579 90.734Z" fill="black" stroke="black"/>
<path d="M494.375 90.734C498.155 90.734 501.218 87.5874 501.218 83.7059C501.218 79.8243 498.155 76.6777 494.375 76.6777C490.596 76.6777 487.532 79.8243 487.532 83.7059C487.532 87.5874 490.596 90.734 494.375 90.734Z" fill="black" stroke="black"/>
<path d="M591.808 69.5153C595.587 69.5153 598.651 66.3687 598.651 62.4871C598.651 58.6056 595.587 55.459 591.808 55.459C588.029 55.459 584.965 58.6056 584.965 62.4871C584.965 66.3687 588.029 69.5153 591.808 69.5153Z" fill="black" stroke="black"/>
<path d="M689.241 69.5153C693.02 69.5153 696.084 66.3687 696.084 62.4871C696.084 58.6056 693.02 55.459 689.241 55.459C685.462 55.459 682.398 58.6056 682.398 62.4871C682.398 66.3687 685.462 69.5153 689.241 69.5153Z" fill="black" stroke="black"/>
<path d="M786.674 62.8146C790.453 62.8146 793.517 59.668 793.517 55.7864C793.517 51.9049 790.453 48.7583 786.674 48.7583C782.894 48.7583 779.831 51.9049 779.831 55.7864C779.831 59.668 782.894 62.8146 786.674 62.8146Z" fill="black" stroke="black"/>
<path d="M884.106 29.3112C887.886 29.3112 890.949 26.1646 890.949 22.283C890.949 18.4015 887.886 15.2549 884.106 15.2549C880.327 15.2549 877.263 18.4015 877.263 22.283C877.263 26.1646 880.327 29.3112 884.106 29.3112Z" fill="black" stroke="black"/>
<path d="M981.539 14.7931C985.319 14.7931 988.382 11.6465 988.382 7.76495C988.382 3.88342 985.319 0.736816 981.539 0.736816C977.76 0.736816 974.696 3.88342 974.696 7.76495C974.696 11.6465 977.76 14.7931 981.539 14.7931Z" fill="black" stroke="black"/>
<path d="M1078.97 14.7931C1082.75 14.7931 1085.82 11.6465 1085.82 7.76495C1085.82 3.88342 1082.75 0.736816 1078.97 0.736816C1075.19 0.736816 1072.13 3.88342 1072.13 7.76495C1072.13 11.6465 1075.19 14.7931 1078.97 14.7931Z" fill="black" stroke="black"/>
<path d="M1176.4 19.2599C1180.18 19.2599 1183.25 16.1133 1183.25 12.2317C1183.25 8.35022 1180.18 5.20361 1176.4 5.20361C1172.63 5.20361 1169.56 8.35022 1169.56 12.2317C1169.56 16.1133 1172.63 19.2599 1176.4 19.2599Z" fill="black" stroke="black"/>
<path d="M1273.84 208.785C1277.62 208.785 1280.68 205.639 1280.68 201.757C1280.68 197.876 1277.62 194.729 1273.84 194.729C1270.06 194.729 1266.99 197.876 1266.99 201.757C1266.99 205.639 1270.06 208.785 1273.84 208.785Z" fill="black" stroke="black"/>
<path d="M1371.27 18.9332C1375.05 18.9332 1378.11 15.7866 1378.11 11.9051C1378.11 8.02356 1375.05 4.87695 1371.27 4.87695C1367.49 4.87695 1364.43 8.02356 1364.43 11.9051C1364.43 15.7866 1367.49 18.9332 1371.27 18.9332Z" fill="black" stroke="black"/>
</svg>
