<svg width="1379" height="209" viewBox="0 0 1379 209" fill="none" xmlns="http://www.w3.org/2000/svg">
<path d="M6.89304 150.943L104.645 115.723L202.077 125.258L299.51 136.425L396.943 83.3784H494.376L591.808 62.1596H689.241L786.674 56.0173L884.107 21.9556L981.539 7.4375H1078.97L1176.4 12.463L1273.84 202.874L1371.55 12.463" stroke="black"/>
<path d="M7.21188 157.741C10.9912 157.741 14.055 154.594 14.055 150.712C14.055 146.831 10.9912 143.684 7.21188 143.684C3.43254 143.684 0.368774 146.831 0.368774 150.712C0.368774 154.594 3.43254 157.741 7.21188 157.741Z" fill="black" stroke="black"/>
<path d="M104.645 122.751C108.424 122.751 111.488 119.604 111.488 115.723C111.488 111.841 108.424 108.695 104.645 108.695C100.865 108.695 97.8015 111.841 97.8015 115.723C97.8015 119.604 100.865 122.751 104.645 122.751Z" fill="black" stroke="black"/>
<path d="M202.077 132.055C205.857 132.055 208.92 128.908 208.92 125.027C208.92 121.145 205.857 117.999 202.077 117.999C198.298 117.999 195.234 121.145 195.234 125.027C195.234 128.908 198.298 132.055 202.077 132.055Z" fill="black" stroke="black"/>
<path d="M299.51 143.223C303.289 143.223 306.353 140.076 306.353 136.194C306.353 132.313 303.289 129.166 299.51 129.166C295.731 129.166 292.667 132.313 292.667 136.194C292.667 140.076 295.731 143.223 299.51 143.223Z" fill="black" stroke="black"/>
<path d="M397.58 90.734C401.359 90.734 404.423 87.5874 404.423 83.7059C404.423 79.8243 401.359 76.6777 397.58 76.6777C393.8 76.6777 390.737 79.8243 390.737 83.7059C390.737 87.5874 393.8 90.734 397.58 90.734Z" fill="black" stroke="black"/>
<path d="M494.376 90.734C498.155 90.734 501.219 87.5874 501.219 83.7059C501.219 79.8243 498.155 76.6777 494.376 76.6777C490.596 76.6777 487.533 79.8243 487.533 83.7059C487.533 87.5874 490.596 90.734 494.376 90.734Z" fill="black" stroke="black"/>
<path d="M591.808 69.5153C595.588 69.5153 598.651 66.3687 598.651 62.4871C598.651 58.6056 595.588 55.459 591.808 55.459C588.029 55.459 584.965 58.6056 584.965 62.4871C584.965 66.3687 588.029 69.5153 591.808 69.5153Z" fill="black" stroke="black"/>
<path d="M689.241 69.5153C693.02 69.5153 696.084 66.3687 696.084 62.4871C696.084 58.6056 693.02 55.459 689.241 55.459C685.462 55.459 682.398 58.6056 682.398 62.4871C682.398 66.3687 685.462 69.5153 689.241 69.5153Z" fill="black" stroke="black"/>
<path d="M786.674 62.8146C790.453 62.8146 793.517 59.668 793.517 55.7864C793.517 51.9049 790.453 48.7583 786.674 48.7583C782.895 48.7583 779.831 51.9049 779.831 55.7864C779.831 59.668 782.895 62.8146 786.674 62.8146Z" fill="black" stroke="black"/>
<path d="M884.106 29.3112C887.886 29.3112 890.95 26.1646 890.95 22.283C890.95 18.4015 887.886 15.2549 884.106 15.2549C880.327 15.2549 877.263 18.4015 877.263 22.283C877.263 26.1646 880.327 29.3112 884.106 29.3112Z" fill="black" stroke="black"/>
<path d="M981.539 14.7931C985.319 14.7931 988.382 11.6465 988.382 7.76495C988.382 3.88342 985.319 0.736816 981.539 0.736816C977.76 0.736816 974.696 3.88342 974.696 7.76495C974.696 11.6465 977.76 14.7931 981.539 14.7931Z" fill="black" stroke="black"/>
<path d="M1078.97 14.7931C1082.75 14.7931 1085.82 11.6465 1085.82 7.76495C1085.82 3.88342 1082.75 0.736816 1078.97 0.736816C1075.19 0.736816 1072.13 3.88342 1072.13 7.76495C1072.13 11.6465 1075.19 14.7931 1078.97 14.7931Z" fill="black" stroke="black"/>
<path d="M1176.4 19.2601C1180.18 19.2601 1183.25 16.1135 1183.25 12.232C1183.25 8.35046 1180.18 5.20386 1176.4 5.20386C1172.63 5.20386 1169.56 8.35046 1169.56 12.232C1169.56 16.1135 1172.63 19.2601 1176.4 19.2601Z" fill="black" stroke="black"/>
<path d="M1273.84 208.785C1277.62 208.785 1280.68 205.638 1280.68 201.757C1280.68 197.875 1277.62 194.729 1273.84 194.729C1270.06 194.729 1266.99 197.875 1266.99 201.757C1266.99 205.638 1270.06 208.785 1273.84 208.785Z" fill="black" stroke="black"/>
<path d="M1371.27 18.933C1375.05 18.933 1378.11 15.7864 1378.11 11.9048C1378.11 8.02331 1375.05 4.87671 1371.27 4.87671C1367.49 4.87671 1364.43 8.02331 1364.43 11.9048C1364.43 15.7864 1367.49 18.933 1371.27 18.933Z" fill="black" stroke="black"/>
</svg>
