<svg width="1365" height="376" viewBox="0 0 1365 376" fill="none" xmlns="http://www.w3.org/2000/svg">
<path d="M0.587921 375.467H1364.65" stroke="#A0A0A0"/>
<path d="M0.587921 281.758H1364.65" stroke="#A0A0A0"/>
<path d="M0.587921 188.05H1364.65" stroke="#A0A0A0"/>
<path d="M0.587921 94.3416H1364.65" stroke="#A0A0A0"/>
<path d="M0.587921 0.632812H1364.65" stroke="#A0A0A0"/>
<path d="M0.587921 0.632812V375.467" stroke="#A0A0A0"/>
<path d="M98.0207 0.632812V375.467" stroke="#A0A0A0"/>
<path d="M195.453 0.632812V375.467" stroke="#A0A0A0"/>
<path d="M292.886 0.632812V375.467" stroke="#A0A0A0"/>
<path d="M390.319 0.632812V375.467" stroke="#A0A0A0"/>
<path d="M487.752 0.632812V375.467" stroke="#A0A0A0"/>
<path d="M585.184 0.632812V375.467" stroke="#A0A0A0"/>
<path d="M682.617 0.632812V375.467" stroke="#A0A0A0"/>
<path d="M780.05 0.632812V375.467" stroke="#A0A0A0"/>
<path d="M877.483 0.632812V375.467" stroke="#A0A0A0"/>
<path d="M974.915 0.632812V375.467" stroke="#A0A0A0"/>
<path d="M1072.35 0.632812V375.467" stroke="#A0A0A0"/>
<path d="M1169.78 0.632812V375.467" stroke="#A0A0A0"/>
<path d="M1267.21 0.632812V375.467" stroke="#A0A0A0"/>
<path d="M1364.65 0.632812V375.467" stroke="#A0A0A0"/>
</svg>
