<svg width="1360" height="502" viewBox="0 0 1360 502" fill="none" xmlns="http://www.w3.org/2000/svg">
<path d="M1.14063 500.023H1359.5V501.051H1.14063V500.023Z" fill="black" stroke="black"/>
<path d="M1.14063 376.286H1359.5V377.314H1.14063V376.286Z" fill="black" stroke="black"/>
<path d="M1.14063 250.52H1359.5V251.548H1.14063V250.52Z" fill="black" stroke="black"/>
<path d="M1.14063 126.783H1359.5V127.811H1.14063V126.783Z" fill="black" stroke="black"/>
<path d="M1.14063 1.01709H1359.5V2.04557H1.14063V1.01709Z" fill="black" stroke="black"/>
<path d="M1.14063 437.14H1359.5V438.169H1.14063V437.14Z" fill="black" stroke="black"/>
<path d="M1.14063 313.403H1359.5V314.431H1.14063V313.403Z" fill="black" stroke="black"/>
<path d="M1.14063 187.637H1359.5V188.666H1.14063V187.637Z" fill="black" stroke="black"/>
<path d="M1.14063 63.8999H1359.5V64.9284H1.14063V63.8999Z" fill="black" stroke="black"/>
<path d="M1360 497.009H0.64064V501.552H1360V497.009Z" fill="black"/>
<path d="M256.398 179.302L256.18 177.818L256.398 179.302ZM425.967 135.639L426.252 137.112L425.967 135.639ZM595.536 113.808L595.621 115.305L595.536 113.808ZM934.674 119.422L935.596 118.239L934.674 119.422ZM1104.24 380.776L1104.59 379.318L1104.24 380.776ZM86.8293 185.54C86.8018 187.04 86.8018 187.04 86.8018 187.04C86.8018 187.04 86.8018 187.04 86.8018 187.04C86.8019 187.04 86.8019 187.04 86.802 187.04C86.8021 187.04 86.8024 187.04 86.8026 187.04C86.8032 187.04 86.804 187.04 86.805 187.04C86.8071 187.04 86.8103 187.04 86.8145 187.04C86.8228 187.04 86.8352 187.04 86.8516 187.041C86.8845 187.041 86.9336 187.042 86.9985 187.043C87.1284 187.045 87.3218 187.049 87.5763 187.053C88.0853 187.061 88.8387 187.073 89.8175 187.087L89.8598 184.087C88.8833 184.073 88.1321 184.061 87.6252 184.053C87.3718 184.049 87.1795 184.046 87.0506 184.044C86.9862 184.042 86.9377 184.042 86.9053 184.041C86.8891 184.041 86.8769 184.041 86.8689 184.04C86.8648 184.04 86.8618 184.04 86.8598 184.04C86.8588 184.04 86.8581 184.04 86.8576 184.04C86.8574 184.04 86.8572 184.04 86.8571 184.04C86.857 184.04 86.857 184.04 86.857 184.04C86.8569 184.04 86.8569 184.04 86.8569 184.04C86.8569 184.04 86.8569 184.04 86.8293 185.54ZM95.8494 187.159C97.6505 187.178 99.6923 187.196 101.949 187.213L101.971 184.213C99.7172 184.197 97.6785 184.178 95.8802 184.16L95.8494 187.159ZM108.001 187.248C109.93 187.257 111.965 187.263 114.097 187.267L114.102 184.267C111.973 184.263 109.94 184.257 108.014 184.248L108.001 187.248ZM120.182 187.27C122.141 187.268 124.163 187.264 126.241 187.257L126.231 184.257C124.155 184.264 122.136 184.268 120.179 184.27L120.182 187.27ZM132.309 187.228C134.293 187.215 136.319 187.2 138.381 187.182L138.354 184.182C136.295 184.2 134.272 184.216 132.291 184.228L132.309 187.228ZM144.455 187.119C146.453 187.095 148.48 187.069 150.53 187.038L150.486 184.039C148.439 184.069 146.415 184.096 144.419 184.119L144.455 187.119ZM156.594 186.94C158.599 186.904 160.622 186.864 162.659 186.821L162.596 183.822C160.562 183.865 158.542 183.904 156.541 183.94L156.594 186.94ZM168.728 186.683C170.742 186.633 172.767 186.58 174.798 186.522L174.713 183.524C172.686 183.581 170.665 183.634 168.654 183.684L168.728 186.683ZM180.87 186.339C182.891 186.274 184.916 186.204 186.941 186.13L186.832 183.132C184.811 183.206 182.791 183.275 180.773 183.34L180.87 186.339ZM193.01 185.895C195.036 185.812 197.059 185.724 199.075 185.631L198.937 182.634C196.926 182.727 194.908 182.815 192.887 182.898L193.01 185.895ZM205.145 185.335C207.18 185.23 209.204 185.12 211.216 185.004L211.043 182.009C209.038 182.124 207.019 182.234 204.991 182.339L205.145 185.335ZM217.285 184.633C219.326 184.501 221.35 184.363 223.352 184.219L223.136 181.227C221.142 181.371 219.126 181.508 217.092 181.639L217.285 184.633ZM229.415 183.755C231.465 183.588 233.487 183.415 235.476 183.233L235.203 180.246C233.225 180.426 231.213 180.599 229.173 180.764L229.415 183.755ZM241.533 182.645C243.595 182.431 245.615 182.208 247.587 181.976L247.235 178.996C245.279 179.227 243.273 179.449 241.224 179.66L241.533 182.645ZM253.635 181.208C254.645 181.071 255.639 180.93 256.617 180.786L256.18 177.818C255.213 177.961 254.23 178.1 253.23 178.236L253.635 181.208ZM256.617 180.786C257.583 180.644 258.55 180.497 259.516 180.346L259.052 177.382C258.094 177.532 257.137 177.677 256.18 177.818L256.617 180.786ZM265.305 179.386C267.228 179.049 269.151 178.696 271.074 178.327L270.509 175.381C268.602 175.747 266.695 176.097 264.788 176.43L265.305 179.386ZM276.825 177.179C278.735 176.783 280.646 176.372 282.556 175.948L281.906 173.02C280.009 173.441 278.112 173.848 276.215 174.242L276.825 177.179ZM288.269 174.643C290.168 174.197 292.066 173.739 293.964 173.27L293.245 170.357C291.357 170.824 289.47 171.279 287.583 171.722L288.269 174.643ZM299.642 171.836C301.529 171.35 303.417 170.853 305.304 170.349L304.529 167.451C302.65 167.953 300.771 168.447 298.893 168.931L299.642 171.836ZM310.952 168.815C312.831 168.296 314.709 167.771 316.587 167.24L315.77 164.353C313.898 164.883 312.026 165.406 310.154 165.922L310.952 168.815ZM322.211 165.63C324.083 165.089 325.954 164.543 327.825 163.993L326.979 161.115C325.112 161.664 323.245 162.209 321.378 162.748L322.211 165.63ZM333.431 162.334C335.298 161.778 337.164 161.22 339.031 160.659L338.168 157.786C336.303 158.346 334.439 158.904 332.575 159.459L333.431 162.334ZM344.626 158.974C346.49 158.411 348.354 157.848 350.218 157.285L349.35 154.413C347.486 154.976 345.623 155.539 343.759 156.102L344.626 158.974ZM355.809 155.597C357.673 155.035 359.537 154.475 361.4 153.917L360.54 151.043C358.674 151.602 356.809 152.162 354.943 152.725L355.809 155.597ZM366.994 152.25C368.86 151.697 370.726 151.148 372.592 150.603L371.751 147.723C369.881 148.269 368.011 148.82 366.142 149.374L366.994 152.25ZM378.196 148.981C380.066 148.444 381.936 147.914 383.806 147.39L382.997 144.501C381.121 145.027 379.245 145.559 377.369 146.097L378.196 148.981ZM389.426 145.837C391.303 145.326 393.18 144.822 395.056 144.328L394.292 141.427C392.407 141.924 390.522 142.429 388.637 142.942L389.426 145.837ZM400.698 142.869C402.583 142.391 404.468 141.924 406.352 141.467L405.646 138.552C403.751 139.011 401.856 139.481 399.961 139.961L400.698 142.869ZM412.02 140.13C413.914 139.694 415.808 139.272 417.702 138.863L417.069 135.93C415.162 136.342 413.255 136.768 411.348 137.206L412.02 140.13ZM423.399 137.674C424.35 137.483 425.301 137.296 426.252 137.112L425.683 134.167C424.724 134.352 423.766 134.541 422.808 134.733L423.399 137.674ZM426.252 137.112C427.251 136.919 428.25 136.727 429.249 136.536L428.686 133.589C427.685 133.781 426.684 133.973 425.683 134.167L426.252 137.112ZM435.248 135.402C437.249 135.028 439.25 134.658 441.25 134.292L440.711 131.341C438.706 131.708 436.701 132.078 434.696 132.453L435.248 135.402ZM447.257 133.206C449.261 132.848 451.265 132.495 453.269 132.145L452.754 129.19C450.746 129.54 448.738 129.894 446.73 130.253L447.257 133.206ZM459.285 131.109C461.292 130.768 463.298 130.431 465.305 130.099L464.815 127.139C462.804 127.472 460.793 127.81 458.782 128.152L459.285 131.109ZM471.329 129.114C473.338 128.79 475.348 128.471 477.357 128.156L476.893 125.192C474.879 125.508 472.865 125.828 470.852 126.152L471.329 129.114ZM483.39 127.224C485.402 126.918 487.414 126.617 489.426 126.32L488.988 123.352C486.971 123.649 484.955 123.952 482.938 124.258L483.39 127.224ZM495.466 125.443C497.481 125.155 499.496 124.872 501.511 124.594L501.1 121.622C499.081 121.901 497.061 122.184 495.042 122.473L495.466 125.443ZM507.559 123.773C509.576 123.504 511.593 123.24 513.611 122.981L513.228 120.005C511.206 120.265 509.184 120.53 507.162 120.799L507.559 123.773ZM519.666 122.218C521.686 121.969 523.705 121.724 525.725 121.485L525.372 118.506C523.347 118.746 521.323 118.991 519.298 119.241L519.666 122.218ZM531.787 120.781C533.809 120.552 535.831 120.327 537.853 120.108L537.53 117.126C535.503 117.345 533.476 117.57 531.449 117.8L531.787 120.781ZM543.922 119.466C545.946 119.257 547.97 119.053 549.994 118.855L549.702 115.869C547.672 116.068 545.643 116.272 543.614 116.482L543.922 119.466ZM556.07 118.275C558.096 118.087 560.122 117.905 562.148 117.728L561.886 114.739C559.855 114.917 557.824 115.1 555.792 115.288L556.07 118.275ZM568.228 117.212C570.256 117.046 572.284 116.885 574.311 116.73L574.082 113.739C572.049 113.894 570.016 114.056 567.983 114.222L568.228 117.212ZM580.397 116.281C582.427 116.137 584.456 115.998 586.485 115.865L586.289 112.871C584.254 113.005 582.22 113.144 580.185 113.288L580.397 116.281ZM592.576 115.483C593.591 115.423 594.606 115.363 595.621 115.305L595.451 112.31C594.433 112.368 593.414 112.428 592.396 112.489L592.576 115.483ZM595.621 115.305C596.627 115.248 597.633 115.193 598.639 115.141L598.483 112.145C597.472 112.198 596.461 112.253 595.451 112.31L595.621 115.305ZM604.677 114.856C606.69 114.77 608.704 114.694 610.718 114.627L610.617 111.629C608.595 111.696 606.572 111.773 604.549 111.859L604.677 114.856ZM616.761 114.451C618.776 114.401 620.791 114.359 622.806 114.325L622.756 111.325C620.733 111.36 618.71 111.402 616.686 111.452L616.761 114.451ZM628.854 114.245C630.869 114.226 632.886 114.214 634.902 114.209L634.894 111.209C632.871 111.214 630.848 111.226 628.825 111.246L628.854 114.245ZM640.951 114.213C642.967 114.221 644.984 114.235 647.001 114.254L647.03 111.254C645.007 111.235 642.985 111.221 640.962 111.213L640.951 114.213ZM653.051 114.329C655.068 114.359 657.085 114.394 659.102 114.434L659.161 111.435C657.14 111.395 655.118 111.36 653.096 111.329L653.051 114.329ZM665.153 114.567C667.17 114.615 669.187 114.667 671.204 114.723L671.287 111.724C669.266 111.668 667.246 111.616 665.225 111.567L665.153 114.567ZM677.256 114.9C679.273 114.962 681.29 115.027 683.307 115.095L683.408 112.096C681.388 112.029 679.368 111.964 677.348 111.902L677.256 114.9ZM689.359 115.304C691.377 115.375 693.394 115.449 695.412 115.524L695.523 112.526C693.504 112.451 691.485 112.377 689.466 112.306L689.359 115.304ZM701.465 115.752C703.483 115.828 705.5 115.906 707.518 115.984L707.634 112.986C705.616 112.908 703.598 112.831 701.579 112.754L701.465 115.752ZM713.573 116.218C715.591 116.296 717.609 116.373 719.628 116.45L719.742 113.452C717.724 113.375 715.706 113.298 713.688 113.22L713.573 116.218ZM725.684 116.677C727.703 116.751 729.722 116.824 731.742 116.895L731.847 113.897C729.83 113.826 727.812 113.753 725.795 113.679L725.684 116.677ZM737.8 117.102C739.82 117.169 741.84 117.233 743.86 117.294L743.951 114.295C741.934 114.234 739.916 114.17 737.899 114.104L737.8 117.102ZM749.921 117.468C751.942 117.523 753.963 117.574 755.984 117.621L756.053 114.622C754.036 114.575 752.019 114.524 750.002 114.469L749.921 117.468ZM762.048 117.749C763.058 117.768 764.069 117.786 765.08 117.803L765.13 114.803C764.121 114.786 763.113 114.768 762.104 114.749L762.048 117.749ZM765.08 117.803C766.07 117.819 767.059 117.822 768.048 117.814L768.021 114.814C767.057 114.822 766.093 114.819 765.13 114.803L765.08 117.803ZM773.973 117.619C775.942 117.509 777.909 117.356 779.875 117.165L779.585 114.179C777.657 114.366 775.73 114.516 773.805 114.624L773.973 117.619ZM785.749 116.486C787.697 116.227 789.643 115.935 791.589 115.618L791.105 112.657C789.186 112.97 787.269 113.257 785.353 113.512L785.749 116.486ZM797.394 114.594C799.32 114.231 801.245 113.847 803.168 113.447L802.558 110.51C800.65 110.907 798.744 111.287 796.839 111.646L797.394 114.594ZM808.916 112.209C810.826 111.784 812.735 111.349 814.642 110.908L813.966 107.985C812.064 108.425 810.164 108.858 808.265 109.28L808.916 112.209ZM820.353 109.573C822.256 109.125 824.155 108.677 826.056 108.232L825.372 105.311C823.47 105.757 821.566 106.206 819.666 106.653L820.353 109.573ZM831.756 106.914C833.658 106.481 835.559 106.057 837.46 105.647L836.826 102.714C834.913 103.128 833.001 103.554 831.09 103.989L831.756 106.914ZM843.172 104.458C845.082 104.078 846.991 103.716 848.898 103.379L848.375 100.425C846.444 100.767 844.515 101.132 842.586 101.516L843.172 104.458ZM854.64 102.439C856.561 102.152 858.48 101.894 860.398 101.67L860.051 98.6905C858.098 98.9181 856.147 99.1803 854.196 99.4718L854.64 102.439ZM866.172 101.106C868.102 100.956 870.03 100.845 871.956 100.779L871.854 97.7812C869.881 97.8483 867.909 97.9614 865.939 98.1152L866.172 101.106ZM877.74 100.723C879.664 100.753 881.587 100.833 883.509 100.969L883.72 97.9763C881.741 97.8368 879.763 97.7545 877.786 97.7238L877.74 100.723ZM889.248 101.543C891.144 101.79 893.04 102.097 894.934 102.467L895.51 99.5227C893.551 99.14 891.593 98.8235 889.636 98.5681L889.248 101.543ZM900.546 103.756C902.383 104.242 904.221 104.793 906.058 105.414L907.018 102.572C905.117 101.929 903.215 101.359 901.314 100.856L900.546 103.756ZM911.447 107.438C913.195 108.162 914.943 108.952 916.691 109.814L918.018 107.123C916.21 106.233 914.403 105.415 912.595 104.666L911.447 107.438ZM921.775 112.523C923.411 113.462 925.048 114.466 926.686 115.539L928.331 113.03C926.644 111.924 924.956 110.889 923.267 109.921L921.775 112.523ZM931.42 118.836C932.197 119.409 932.974 119.998 933.751 120.604L935.596 118.239C934.798 117.616 934 117.011 933.202 116.422L931.42 118.836ZM933.751 120.604C934.498 121.187 935.245 121.798 935.994 122.439L937.944 120.159C937.163 119.49 936.38 118.85 935.596 118.239L933.751 120.604ZM940.377 126.497C941.755 127.868 943.135 129.33 944.518 130.877L946.755 128.878C945.337 127.291 943.917 125.787 942.494 124.371L940.377 126.497ZM948.395 135.429C949.626 136.939 950.857 138.513 952.09 140.147L954.485 138.34C953.231 136.679 951.977 135.076 950.721 133.534L948.395 135.429ZM955.662 145.039C956.803 146.652 957.944 148.312 959.087 150.017L961.579 148.347C960.424 146.623 959.267 144.941 958.111 143.306L955.662 145.039ZM962.38 155.051C963.457 156.736 964.534 158.457 965.612 160.213L968.169 158.644C967.082 156.873 965.995 155.136 964.907 153.435L962.38 155.051ZM968.719 165.367C969.737 167.086 970.755 168.833 971.774 170.607L974.376 169.113C973.351 167.328 972.325 165.569 971.3 163.838L968.719 165.367ZM974.762 175.883C975.736 177.626 976.71 179.392 977.685 181.178L980.318 179.742C979.339 177.947 978.36 176.172 977.381 174.42L974.762 175.883ZM980.575 186.535C981.516 188.298 982.458 190.078 983.399 191.874L986.056 190.481C985.111 188.679 984.167 186.892 983.221 185.122L980.575 186.535ZM986.211 197.283C987.129 199.062 988.046 200.854 988.963 202.658L991.638 201.299C990.718 199.49 989.798 197.692 988.878 195.908L986.211 197.283ZM991.712 208.097C992.613 209.891 993.514 211.694 994.415 213.507L997.101 212.171C996.199 210.355 995.296 208.548 994.393 206.751L991.712 208.097ZM997.116 218.963C998.006 220.768 998.896 222.581 999.786 224.399L1002.48 223.08C1001.59 221.26 1000.7 219.445 999.807 217.637L997.116 218.963ZM1002.46 229.867C1003.34 231.681 1004.22 233.5 1005.11 235.322L1007.81 234.013C1006.92 232.19 1006.04 230.37 1005.15 228.553L1002.46 229.867ZM1007.76 240.793C1008.64 242.615 1009.52 244.437 1010.4 246.26L1013.1 244.955C1012.22 243.132 1011.34 241.308 1010.46 239.487L1007.76 240.793ZM1013.04 251.73C1013.93 253.556 1014.81 255.381 1015.69 257.203L1018.39 255.894C1017.51 254.073 1016.63 252.249 1015.75 250.424L1013.04 251.73ZM1018.35 262.665C1019.24 264.493 1020.12 266.318 1021.01 268.137L1023.71 266.819C1022.82 265.002 1021.93 263.179 1021.04 261.352L1018.35 262.665ZM1023.69 273.585C1024.59 275.414 1025.49 277.236 1026.39 279.05L1029.07 277.717C1028.17 275.906 1027.28 274.087 1026.38 272.26L1023.69 273.585ZM1029.09 284.479C1030.01 286.305 1030.92 288.122 1031.84 289.927L1034.51 288.57C1033.6 286.77 1032.69 284.957 1031.77 283.135L1029.09 284.479ZM1034.59 295.332C1035.53 297.152 1036.47 298.959 1037.4 300.751L1040.06 299.363C1039.13 297.577 1038.2 295.775 1037.26 293.961L1034.59 295.332ZM1040.23 306.126C1041.19 307.935 1042.15 309.727 1043.12 311.499L1045.75 310.068C1044.8 308.304 1043.84 306.52 1042.88 304.718L1040.23 306.126ZM1046.05 316.839C1047.04 318.628 1048.03 320.396 1049.03 322.139L1051.64 320.653C1050.65 318.92 1049.66 317.163 1048.67 315.382L1046.05 316.839ZM1052.09 327.434C1053.13 329.193 1054.16 330.924 1055.2 332.625L1057.76 331.066C1056.73 329.378 1055.71 327.66 1054.68 325.914L1052.09 327.434ZM1058.44 337.856C1059.54 339.598 1060.64 341.303 1061.75 342.97L1064.25 341.314C1063.16 339.666 1062.07 337.978 1060.98 336.252L1058.44 337.856ZM1065.17 348.015C1066.37 349.73 1067.57 351.398 1068.77 353.013L1071.18 351.225C1070 349.635 1068.82 347.992 1067.63 346.298L1065.17 348.015ZM1072.49 357.855C1073.79 359.483 1075.09 361.046 1076.4 362.541L1078.66 360.569C1077.39 359.11 1076.11 357.58 1074.84 355.983L1072.49 357.855ZM1080.6 367.106C1082.08 368.633 1083.57 370.064 1085.07 371.395L1087.06 369.155C1085.63 367.876 1084.19 366.493 1082.74 365.013L1080.6 367.106ZM1089.88 375.316C1091.62 376.597 1093.37 377.735 1095.13 378.715L1096.59 376.096C1094.96 375.183 1093.31 374.116 1091.66 372.9L1089.88 375.316ZM1100.87 381.337C1101.88 381.691 1102.88 381.991 1103.89 382.234L1104.59 379.318C1103.69 379.1 1102.78 378.829 1101.87 378.508L1100.87 381.337ZM1103.89 382.234C1104.93 382.484 1105.98 382.668 1107.05 382.788L1107.38 379.807C1106.44 379.7 1105.51 379.538 1104.59 379.318L1103.89 382.234ZM1113.42 382.795C1115.44 382.587 1117.51 382.188 1119.61 381.616L1118.82 378.722C1116.86 379.256 1114.96 379.622 1113.11 379.811L1113.42 382.795ZM1125.51 379.591C1127.37 378.832 1129.24 377.954 1131.14 376.967L1129.75 374.306C1127.93 375.255 1126.14 376.093 1124.38 376.814L1125.51 379.591ZM1136.53 373.903C1138.24 372.848 1139.97 371.712 1141.72 370.5L1140 368.037C1138.3 369.219 1136.62 370.324 1134.96 371.347L1136.53 373.903ZM1146.63 366.913C1148.22 365.699 1149.82 364.428 1151.42 363.104L1149.52 360.79C1147.94 362.092 1146.37 363.339 1144.81 364.529L1146.63 366.913ZM1156.11 359.105C1157.61 357.786 1159.12 356.425 1160.63 355.024L1158.58 352.826C1157.09 354.209 1155.61 355.552 1154.13 356.853L1156.11 359.105ZM1165.05 350.815C1166.5 349.404 1167.95 347.96 1169.4 346.486L1167.27 344.38C1165.83 345.84 1164.39 347.269 1162.96 348.665L1165.05 350.815ZM1173.62 342.126C1175.01 340.66 1176.41 339.168 1177.8 337.654L1175.59 335.624C1174.21 337.126 1172.83 338.606 1171.45 340.06L1173.62 342.126ZM1181.88 333.144C1183.23 331.637 1184.57 330.111 1185.91 328.568L1183.64 326.601C1182.31 328.134 1180.98 329.65 1179.64 331.147L1181.88 333.144ZM1189.88 323.939C1191.19 322.397 1192.49 320.841 1193.79 319.274L1191.48 317.361C1190.18 318.92 1188.89 320.467 1187.59 322L1189.88 323.939ZM1197.65 314.555C1198.93 312.983 1200.19 311.401 1201.46 309.812L1199.11 307.945C1197.85 309.527 1196.59 311.102 1195.32 312.666L1197.65 314.555ZM1205.22 305.026C1206.47 303.425 1207.71 301.819 1208.95 300.21L1206.57 298.385C1205.34 299.988 1204.1 301.587 1202.86 303.181L1205.22 305.026ZM1212.63 295.364C1213.85 293.74 1215.07 292.115 1216.28 290.491L1213.87 288.703C1212.67 290.322 1211.45 291.941 1210.24 293.558L1212.63 295.364ZM1219.89 285.588C1221.09 283.946 1222.28 282.306 1223.45 280.672L1221.02 278.918C1219.85 280.547 1218.66 282.181 1217.46 283.817L1219.89 285.588ZM1227.01 275.711C1228.18 274.056 1229.35 272.408 1230.5 270.77L1228.04 269.046C1226.89 270.679 1225.73 272.322 1224.56 273.973L1227.01 275.711ZM1234 265.75C1235.16 264.069 1236.31 262.401 1237.44 260.75L1234.96 259.055C1233.84 260.702 1232.69 262.365 1231.53 264.042L1234 265.75ZM1240.86 255.724C1242.02 254.012 1243.15 252.322 1244.27 250.655L1241.77 248.988C1240.66 250.65 1239.53 252.336 1238.37 254.043L1240.86 255.724ZM1247.61 245.623C1248.76 243.89 1249.88 242.188 1250.96 240.522L1248.45 238.881C1247.37 240.543 1246.25 242.24 1245.11 243.969L1247.61 245.623ZM1254.29 235.399C1255.42 233.648 1256.52 231.946 1257.57 230.297L1255.04 228.681C1253.99 230.326 1252.9 232.025 1251.77 233.77L1254.29 235.399ZM1260.81 225.207C1261.94 223.404 1263.02 221.683 1264.04 220.052L1261.5 218.463C1260.48 220.09 1259.4 221.807 1258.27 223.605L1260.81 225.207ZM1267.25 214.883C1268.44 212.956 1269.5 211.211 1270.44 209.672L1267.88 208.114C1266.94 209.648 1265.88 211.387 1264.7 213.309L1267.25 214.883ZM1273.59 204.446C1274.09 203.617 1274.46 202.979 1274.72 202.548C1274.85 202.333 1274.94 202.169 1275.01 202.059C1275.04 202.004 1275.06 201.962 1275.08 201.934C1275.09 201.92 1275.1 201.909 1275.1 201.902C1275.1 201.899 1275.1 201.896 1275.1 201.894C1275.1 201.893 1275.11 201.893 1275.11 201.892C1275.11 201.892 1275.11 201.892 1275.11 201.891C1275.11 201.891 1275.11 201.891 1275.11 201.891C1275.11 201.891 1275.11 201.891 1275.11 201.891C1275.11 201.891 1275.11 201.891 1273.81 201.134C1272.52 200.376 1272.52 200.376 1272.52 200.376C1272.52 200.376 1272.52 200.376 1272.52 200.376C1272.52 200.376 1272.52 200.377 1272.52 200.377C1272.52 200.377 1272.52 200.377 1272.52 200.377C1272.52 200.377 1272.52 200.378 1272.52 200.379C1272.51 200.38 1272.51 200.383 1272.51 200.386C1272.51 200.393 1272.5 200.403 1272.49 200.417C1272.48 200.444 1272.45 200.484 1272.42 200.538C1272.36 200.647 1272.26 200.809 1272.14 201.022C1271.88 201.449 1271.51 202.083 1271.02 202.907L1273.59 204.446Z" fill="black"/>
<path d="M86.8293 162.461C86.8293 162.461 199.875 151.545 256.398 142.501C312.921 133.456 369.444 118.07 425.967 108.194C482.49 98.3178 539.013 86.7783 595.536 83.2436C652.059 79.709 708.582 86.1545 765.105 86.9862C821.628 87.8179 878.151 43.739 934.674 88.2337C991.197 132.728 1047.72 341.791 1104.24 353.954C1160.77 366.118 1273.81 161.213 1273.81 161.213" stroke="black" stroke-width="3"/>
</svg>
